<svg xmlns="http://www.w3.org/2000/svg" width="1986" height="1866" fill="none" viewBox="0 0 1986 1866"><path fill="#60c" d="M1227.94 1139.87c56.21 0 101.77-43.04 101.77-96.14 0-53.102-45.56-96.147-101.77-96.147s-101.78 43.045-101.78 96.147c0 53.1 45.57 96.14 101.78 96.14M147.946 422.727c-29.736 0-55.609-6.695-77.626-20.077s-39.237-31.765-51.658-55.14C6.242 324.136.032 297.269.032 266.899s6.307-57.237 18.913-80.611 30.018-41.757 52.221-55.139 47.803-20.078 76.78-20.078c36.512 0 67.28 10.085 92.306 30.266s40.745 48.051 47.141 83.608h-83.555c-3.388-13.588-10.162-24.17-20.324-31.765s-22.203-11.387-36.132-11.387c-12.8 0-24.179 3.399-34.156 10.189-9.977 6.789-17.88 16.584-23.712 29.367-5.83 12.783-8.75 27.973-8.75 45.55 0 13.185 1.597 24.873 4.799 35.062s7.806 18.982 13.831 26.37q9.038 11.084 21.171 17.082c8.089 3.999 17.034 5.993 26.817 5.993 9.412 0 17.881-1.695 25.405-5.095s14.017-8.287 19.477-14.683 9.316-13.982 11.574-22.775h83.555c-6.396 34.761-22.115 62.434-47.141 83.008q-37.538 30.864-92.306 30.866"/><path fill="#000" d="M333.033 422.535V0h77.91v173.809h1.693q14.674-26.971 38.108-41.355 23.431-14.385 55.609-14.384c22.962 0 42.342 5.291 58.15 15.883s27.848 26.174 36.131 46.748 12.421 45.849 12.421 75.816v166.018h-78.474V264.309c0-24.376-4.419-43.05-13.267-56.038-8.848-12.989-23.429-19.479-43.753-19.479-12.421 0-23.615 3.194-33.592 9.59s-17.783 15.582-23.429 27.569q-8.469 17.98-8.468 43.153v153.431zM803.217 422.727c-26.72 0-50.996-6.695-72.829-20.077s-39.139-31.765-51.939-55.14c-12.8-23.374-19.195-50.241-19.195-80.611s6.395-57.34 19.195-80.911 30.106-41.954 51.939-55.139q32.748-19.779 73.393-19.778c27.099 0 51.56 6.592 73.393 19.778s39.14 31.465 51.939 54.84c12.8 23.374 19.196 50.447 19.196 81.21 0 30.37-6.396 57.237-19.196 80.611-12.799 23.375-30.106 41.758-51.939 55.14s-46.479 20.077-73.957 20.077m0-71.321c12.041 0 22.864-3.1 32.462-9.29 9.597-6.19 17.316-15.583 23.147-28.169s8.75-28.272 8.75-47.048-2.919-34.462-8.75-47.048-13.55-21.979-23.147-28.169c-9.598-6.19-20.227-9.29-31.898-9.29-11.291 0-21.832 3.1-31.615 9.29s-17.598 15.583-23.429 28.169-8.751 28.272-8.751 47.048 2.92 34.462 8.751 47.048 13.549 21.979 23.147 28.169 20.042 9.29 31.333 9.29M993.411 538.4V118.263h67.179l5.65 49.146h1.69c6.78-11.584 14.87-21.576 24.28-29.967s20.42-14.881 33.03-19.479c12.6-4.598 26.63-6.892 42.05-6.892 26.35 0 49.4 6.696 69.16 20.078s35.29 31.868 46.58 55.439 16.94 50.344 16.94 80.311c0 30.37-5.55 57.237-16.66 80.612-11.1 23.374-26.72 41.757-46.86 55.139s-43.75 20.078-70.85 20.078c-21.07 0-39.52-4.196-55.33-12.587-15.8-8.39-28.41-19.178-37.82-32.364V538.4zm151.869-185.196c15.06 0 28.13-3.699 39.23-11.088 11.11-7.389 19.76-17.484 25.97-30.267s9.32-27.569 9.32-44.35c0-17.185-3.11-32.168-9.32-44.951s-14.86-22.878-25.97-30.267c-11.1-7.389-24.17-11.087-39.23-11.087-14.68 0-27.67 3.698-38.96 11.087s-20.14 17.484-26.53 30.267c-6.4 12.783-9.6 27.57-9.6 44.351q0 25.777 9.6 44.95c6.39 12.783 15.24 22.878 26.53 30.267s24.28 11.088 38.96 11.088M1345.07 538.4V118.263h67.18l5.65 49.146h1.69c6.78-11.584 14.86-21.576 24.28-29.967 9.41-8.391 20.42-14.881 33.02-19.479 12.61-4.598 26.63-6.892 42.06-6.892 26.35 0 49.4 6.696 69.16 20.078s35.29 31.868 46.58 55.439 16.93 50.344 16.93 80.311c0 30.37-5.54 57.237-16.65 80.612s-26.72 41.757-46.86 55.139-43.75 20.078-70.85 20.078c-21.07 0-39.52-4.196-55.33-12.587s-28.41-19.178-37.82-32.364V538.4zm151.87-185.196c15.05 0 28.13-3.699 39.23-11.088 11.11-7.389 19.76-17.484 25.97-30.267s9.32-27.569 9.32-44.35c0-17.185-3.11-32.168-9.32-44.951s-14.86-22.878-25.97-30.267c-11.1-7.389-24.18-11.087-39.23-11.087-14.68 0-27.67 3.698-38.96 11.087s-20.14 17.484-26.53 30.267c-6.4 12.783-9.6 27.57-9.6 44.351q0 25.777 9.6 44.95c6.39 12.783 15.24 22.878 26.53 30.267s24.28 11.088 38.96 11.088M1843.73 422.727c-28.98 0-54.58-6.396-76.78-19.179s-39.52-30.669-51.94-53.64q-18.63-34.458-18.63-80.012c0-31.166 6.11-58.632 18.35-82.409 12.23-23.777 29.45-42.45 51.66-56.039 22.2-13.588 47.98-20.377 77.34-20.377 27.85 0 52.5 6.396 73.96 19.179 21.45 12.783 38.2 30.266 50.24 52.442 12.04 22.175 18.07 47.451 18.07 75.816v13.485c0 4.992-.38 10.086-1.13 15.284h-232.03v-50.345h152.99c-1.13-17.98-7.43-32.364-18.91-43.152s-25.87-16.183-43.19-16.183c-12.8 0-24.46 3.1-35 9.29s-18.91 15.387-25.12 27.57-9.32 27.869-9.32 47.048v17.381c0 15.18 2.92 28.469 8.75 39.856s13.93 20.181 24.28 26.371c10.34 6.19 22.3 9.29 35.85 9.29 13.17 0 24.27-3.1 33.31-9.29q13.545-9.285 20.88-24.273h80.74c-5.65 19.179-14.78 36.457-27.39 51.843-12.6 15.386-28.04 27.569-46.29 36.559s-38.49 13.485-60.69 13.485M147.615 1140.47c-19.945 0-37.358-3.3-52.222-9.89-14.863-6.59-26.437-17.58-34.72-32.96-8.283-15.39-12.42-36.46-12.42-63.23V908.524H.265v-65.329h47.988l8.468-80.911h67.747v80.911h74.522v65.329h-74.522v127.056q0 20.985 8.469 29.07c5.645 5.4 15.243 8.09 28.792 8.09h35.567v67.73zM388.696 1147.66c-27.099 0-51.56-6.59-73.393-19.78-21.832-13.18-39.052-31.57-51.657-55.14-12.606-23.57-18.913-50.54-18.913-80.909 0-30.763 6.395-57.836 19.195-81.211 12.8-23.374 30.107-41.654 51.94-54.839q32.748-19.779 72.828-19.779c27.099 0 51.56 6.593 73.393 19.779q32.748 19.778 51.657 54.839c12.605 23.375 18.912 50.448 18.912 81.211 0 30.759-6.395 57.839-19.195 81.209q-19.199 35.07-51.657 54.84c-21.638 13.19-46.011 19.78-73.11 19.78m-.565-68.33c12.421 0 23.615-3.29 33.592-9.88 9.976-6.6 18.066-16.38 24.276-29.37s9.315-29.07 9.315-48.249c0-19.582-3.105-35.858-9.315-48.846-6.21-12.989-14.3-22.672-24.276-29.068-9.977-6.396-20.792-9.59-32.463-9.59-12.041 0-23.147 3.194-33.309 9.59s-18.251 16.079-24.276 29.068c-6.025 12.988-9.033 29.264-9.033 48.846 0 19.179 3.008 35.259 9.033 48.249s14.017 22.77 23.994 29.37c9.977 6.59 20.792 9.88 32.462 9.88M578.53 1140.47V843.195h65.489l6.21 48.546h1.694c9.033-17.184 21.453-30.763 37.261-40.755s35.188-14.984 58.15-14.984q34.998-.002 59.278 15.883c16.187 10.592 28.511 26.071 36.979 46.449q12.702 30.566 12.703 75.517v166.619h-75.651V981.043c0-24.77-4.702-43.752-14.115-56.937-9.412-13.186-24.461-19.779-45.164-19.779-12.8 0-24.276 3.297-34.438 9.89-10.163 6.592-18.066 15.985-23.712 28.169-5.645 12.183-8.468 27.072-8.468 44.65v153.434zM146.221 1866c-28.607 0-53.916-6.4-75.933-19.18q-33.027-19.17-51.657-53.94C6.21 1769.7 0 1743.14 0 1713.17c0-31.17 6.113-58.63 18.348-82.41s29.357-42.45 51.375-56.04 47.705-20.38 77.063-20.38c27.848 0 52.318 6.4 73.392 19.18 21.074 12.79 37.64 30.27 49.681 52.44 12.041 22.18 18.066 47.25 18.066 75.22v13.49c0 4.99-.379 10.08-1.129 15.28H54.198v-49.75H210.58c-1.129-18.77-7.622-33.76-19.478-44.95-11.855-11.19-26.631-16.78-44.317-16.78-13.171 0-25.22 3.1-36.132 9.29s-19.575 15.59-25.97 28.17c-6.395 12.59-9.598 28.47-9.598 47.65v17.38c0 16.38 3.008 30.46 9.033 42.25q9.036 17.685 25.123 27.27c10.727 6.4 22.865 9.59 36.414 9.59 13.929 0 25.591-3.29 35.003-9.89 9.412-6.59 16.558-15.08 21.453-25.47h77.909c-5.645 18.78-14.678 35.86-27.098 51.25-12.421 15.38-27.664 27.56-45.73 36.55s-38.39 13.49-60.972 13.49M313.799 1858.81l102.75-148.64-102.75-148.63h82.425l68.312 102.48h1.694l68.876-102.48h81.861l-102.75 148.63 102.75 148.64h-81.861l-68.876-102.49h-1.694l-68.312 102.49z"/><path fill="#60c" d="M740.37 1866c-22.582 0-41.213-4-55.891-11.99-14.679-7.99-25.503-18.77-32.463-32.36-6.959-13.59-10.444-28.57-10.444-44.95 0-18.38 4.42-34.57 13.267-48.55 8.848-13.98 22.3-24.87 40.366-32.66s40.834-11.69 68.312-11.69h70.57c0-14.79-1.976-26.97-5.928-36.56s-9.977-16.68-18.066-21.28c-8.089-4.59-18.348-6.89-30.768-6.89-14.679 0-27.196 3.4-37.543 10.19-10.348 6.79-16.84 17.58-19.478 32.36h-73.957c2.258-21.97 9.13-40.95 20.606-56.93 11.477-15.99 26.72-28.37 45.729-37.16 19.01-8.79 40.552-13.19 64.643-13.19 27.099 0 50.431 4.69 70.005 14.09 19.575 9.39 34.623 23.18 45.165 41.35 10.541 18.18 15.808 40.26 15.808 66.23v182.8h-63.796l-7.903-46.15h-1.694c-5.266 8.79-11.291 16.48-18.066 23.07-6.775 6.6-14.114 12.09-22.018 16.49-7.904 4.39-16.655 7.79-26.252 10.18-9.598 2.4-19.662 3.6-30.204 3.6m23.712-62.33q15.243 0 27.099-5.7c7.904-3.79 14.581-8.88 20.041-15.28 5.461-6.39 9.783-13.89 12.985-22.47a117 117 0 0 0 6.493-26.67h-58.715c-11.67 0-21.171 1.49-28.51 4.49s-12.703 7.19-16.09 12.59c-3.387 5.39-5.081 11.68-5.081 18.88 0 7.19 1.694 13.38 5.081 18.58 3.387 5.19 8.284 9.09 14.679 11.68q9.593 3.9 22.018 3.9"/><path fill="#000" d="M971.886 1858.81v-297.27h66.614l6.78 47.34h1.69c8.66-17.98 20.61-31.56 35.85-40.75s33.03-13.79 53.35-13.79c13.93 0 26.72 2 38.39 6s22.02 10.19 31.05 18.58c9.04 8.39 16.56 19.17 22.59 32.36h1.69c10.54-17.98 23.81-31.96 39.8-41.95 15.99-10 35.47-14.99 58.43-14.99 22.59 0 41.88 5.29 57.87 15.89 15.99 10.59 28.33 26.07 36.98 46.44 8.65 20.38 12.98 45.55 12.98 75.52v166.62h-75.65v-159.43c0-24.77-4.51-43.75-13.55-56.93-9.03-13.19-23.33-19.78-42.9-19.78-12.42 0-23.25 2.99-32.47 8.99-9.21 5.99-16.46 14.78-21.73 26.37-5.27 11.58-7.9 25.97-7.9 43.15v157.63h-75.66v-159.43c0-24.77-4.51-43.75-13.55-56.93-9.03-13.19-23.33-19.78-42.9-19.78-11.29 0-21.64 3.29-31.05 9.89-9.41 6.59-16.84 15.98-22.3 28.17-5.46 12.18-8.19 27.07-8.19 44.65v153.43z"/></svg>